<?xml version="1.0" encoding="UTF-8"?>
<svg width="15.369445mm" height="20.525051mm" viewBox="0 0 15.369445 20.525051" xmlns="http://www.w3.org/2000/svg">
    <g transform="translate(-75.02489,-95.265962)">
        <path fill="currentColor"
              d="m 77.265625,95.335937 c -0.69169,0.19868 -1.241371,0.659849 -1.533203,1.25586 -0.291832,0.596011 -0.376423,1.280571 -0.398438,2.074219 -0.04403,1.587294 -0.105596,4.154084 -0.104042,6.961274 -0.0016,2.8072 -0.245152,4.96905 -0.199307,6.62186 0.02292,0.82641 0.111006,1.53922 0.414883,2.15983 0.303877,0.62061 0.876246,1.10285 1.596485,1.30973 0.522306,0.15002 1.021667,0.0463 1.578181,-0.12609 0.556514,-0.17239 1.169371,-0.44377 1.828331,-0.79113 1.317922,-0.69472 2.816287,-1.68999 4.248479,-2.78012 1.432194,-1.09013 2.791882,-2.2718 3.817328,-3.3577 0.512723,-0.54295 0.942566,-1.06053 1.260918,-1.54971 0.318352,-0.48919 0.614579,-1.12972 0.619062,-1.66827 0.0047,-0.55983 -0.490666,-1.18686 -0.900161,-1.8461 -0.305734,-0.4698 -0.718538,-0.96685 -1.210938,-1.48828 -0.984799,-1.04287 -2.290592,-2.179647 -3.666016,-3.226564 -1.375423,-1.046917 -2.814396,-2.000785 -4.080078,-2.667969 -0.63284,-0.333592 -1.221404,-0.596167 -1.755859,-0.761719 -0.534455,-0.165551 -1.014022,-0.263218 -1.515625,-0.119141 z m 0.365234,1.271485 c 0.04459,-0.01281 0.344926,-0.01717 0.759766,0.111328 0.41484,0.1285 0.944157,0.359521 1.529297,0.667969 1.17028,0.616895 2.56769,1.539356 3.896484,2.550781 1.328795,1.01142 2.5935,2.11588 3.50586,3.08203 0.456179,0.48308 0.823041,0.93282 1.0625,1.30078 0.236796,0.36387 0.317814,0.65136 0.320312,0.70703 -0.0029,0.0566 -0.08406,0.34205 -0.320312,0.70508 -0.239459,0.36796 -0.606321,0.81966 -1.0625,1.30274 -0.91236,0.96615 -2.177065,2.06865 -3.50586,3.08007 -1.328794,1.01143 -2.726204,1.93389 -3.896484,2.55079 -0.58514,0.30844 -1.114457,0.53946 -1.529297,0.66796 -0.41484,0.1285 -0.715174,0.12609 -0.759766,0.11329 -0.403245,-0.11583 -0.560733,-0.25965 -0.710937,-0.56641 -0.150204,-0.30676 -0.244024,-0.82291 -0.263672,-1.53125 -0.0393,-1.41668 0.02848,-3.5517 0.03002,-6.32227 -0.0015,-2.77056 -0.06931,-4.90754 -0.03002,-6.324215 0.01965,-0.708339 0.113468,-1.222533 0.263672,-1.529297 0.150204,-0.306763 0.307692,-0.450579 0.710937,-0.566406 z"/>
    </g>
</svg>
