<?xml version="1.0" encoding="UTF-8"?>
<svg width="1em" height="1em" viewBox="0 0 24.934662 25.140696" xmlns="http://www.w3.org/2000/svg">
    <g transform="translate(-45.99849,-120.29623)">
        <path fill="currentColor"
              d="m 53.810547,120.44727 c -1.950953,-0.42588 -4.131894,-0.0138 -5.75,2.04492 -1.14471,1.45643 -2.009735,3.13715 -2.058313,4.34817 -0.04857,1.21102 0.381207,2.23056 0.94953,3.00551 0.85813,1.17013 1.825938,1.71482 2.353708,1.97953 -0.134721,0.42182 -0.697092,2.1126 -1.092362,4.49215 -0.220725,1.3288 -0.361241,2.7335 -0.267558,3.99728 0.09368,1.26379 0.408256,2.4407 1.291521,3.16846 1.00626,0.8291 2.537718,1.23661 4.212534,1.51683 1.674816,0.28022 3.491772,0.39334 4.997102,0.43655 0.01207,3.4e-4 0.02415,3.4e-4 0.03621,0 1.505331,-0.0433 3.324298,-0.15633 4.999113,-0.43655 1.674817,-0.28022 3.204262,-0.68773 4.210522,-1.51683 0.883266,-0.72776 1.19784,-1.90467 1.291522,-3.16846 0.09368,-1.26378 -0.04683,-2.66848 -0.267558,-3.99728 -0.395269,-2.37955 -0.957641,-4.07033 -1.092362,-4.49215 0.527374,-0.26442 1.497156,-0.80882 2.355719,-1.97953 0.568323,-0.77495 0.998108,-1.79449 0.94953,-3.00551 -0.04857,-1.21102 -0.913603,-2.89174 -2.058312,-4.34817 -1.618106,-2.05875 -3.801001,-2.4708 -5.751953,-2.04492 -1.787373,0.39016 -3.393268,1.39814 -4.654297,2.33789 -1.2609,-0.93953 -2.867407,-1.94784 -4.654296,-2.33789 z m -0.265625,1.21875 c 1.636172,0.35715 3.321591,1.41209 4.539062,2.35742 0.224772,0.17415 0.5389,0.17415 0.763672,0 1.217472,-0.94533 2.900938,-2.00027 4.53711,-2.35742 1.636171,-0.35716 3.156019,-0.11978 4.505859,1.59765 1.028423,1.30849 1.395154,2.37737 1.429687,3.23828 0.03453,0.86091 -0.255773,1.54821 -0.68164,2.12891 -0.851734,1.1614 -2.238281,1.76953 -2.238281,1.76953 -0.299168,0.12631 -0.451276,0.46111 -0.34961,0.76953 0,0 0.729356,2.22143 1.138672,4.68555 0.204658,1.23206 0.324923,2.52252 0.246094,3.58594 -0.07883,1.06341 -0.371565,1.8482 -0.804688,2.20507 -0.617103,0.50847 -1.967185,0.94829 -3.501953,1.20508 -1.528993,0.25583 -3.240588,0.36494 -4.664062,0.40625 -1.423475,-0.0413 -3.13507,-0.15042 -4.664063,-0.40625 -1.534767,-0.25679 -2.884849,-0.69661 -3.501953,-1.20508 -0.433122,-0.35687 -0.723905,-1.14166 -0.802734,-2.20507 -0.07883,-1.06342 0.04144,-2.35388 0.246093,-3.58594 0.409316,-2.46412 1.138672,-4.68555 1.138672,-4.68555 0.101666,-0.30841 -0.05044,-0.64322 -0.349609,-0.76953 0,0 -1.386547,-0.60813 -2.238281,-1.76953 -0.425867,-0.5807 -0.716174,-1.268 -0.681641,-2.12891 0.03453,-0.86091 0.401265,-1.92979 1.429688,-3.23828 1.34984,-1.71743 2.867734,-1.95481 4.503906,-1.59765 z"/>
    </g>
</svg>
