<?xml version="1.0" encoding="utf-8" ?>
<svg viewBox="0 0 67.733334 12.7" xmlns="http://www.w3.org/2000/svg">
    <path class="fill-green" stroke="currentColor" stroke-width="1.32292" stroke-linejoin="round"
          d="m 7.296456,-3.84091 c 0,0 -1.287449,3.13589 -6.372192,5.88118 h 2e-6 c 4.705432,0.60627 6.43743,-0.76072 6.43743,-0.76072"/>
    <path class="fill-green" stroke="currentColor" stroke-width="1.32292"
          d="m 20.616077,-3.034 c -0.35132,1.39421 1.41922,3.8663 -0.31633,5.0501 -2.05568,1.40215 -6.33868,1.03401 -7.76356,0.23271 -3.173585,-1.78471 0.16352,-10.39774 0.16352,-10.39774"/>
    <path class="fill-green" stroke="currentColor" stroke-width="1.32292"
          d="m 28.563207,-2.5818 c 0.35132,1.39421 -1.41922,3.8663 0.31633,5.0501 2.05568,1.40215 6.33867,1.03401 7.76355,0.23271 3.17358,-1.78471 -0.16352,-10.39774 -0.16352,-10.39774"/>
    <path class="fill-orange" stroke="currentColor" stroke-width="1.32292"
          d="m 19.850367,-3.7318 c 10.95478,0.006 14.43633,4.57888 -0.0254,4.7826 -14.461715,0.20372 -9.79766,-5.03606 0.0254,-4.7826 z"/>
    <path class="fill-green" stroke="currentColor" stroke-width="1.32292" stroke-linecap="round"
          d="m 20.523207,0.03738 c 0.35132,1.39421 -1.41922,3.8663 0.31633,5.0501 2.05568,1.40215 6.33867,1.03401 7.76355,0.23271 3.17358,-1.78471 -0.16352,-10.39774 -0.16352,-10.39774"/>
    <path class="fill-green" stroke="currentColor" stroke-width="1.32292" stroke-linecap="round"
          d="m 13.476377,0.14538 c -0.35132,1.39421 1.41922,3.8663 -0.31633,5.0501 C 11.104369,6.59763 6.821379,6.22949 5.396499,5.42819 2.222919,3.64348 5.560019,-4.96955 5.560019,-4.96955"/>
    <path stroke="currentColor" stroke-width="1.32292" stroke-linecap="round"
          d="m 30.485487,0.25132 c 2.699,-0.73396 2.13462,-7.70801 1.3446,-12.02493"/>
</svg>
