<?xml version="1.0" encoding="utf-8" ?>
<svg viewBox="0 0 33.866665 25.4" xmlns="http://www.w3.org/2000/svg">
    <path class="fill-green" stroke="currentColor" stroke-width="1.32292"
          stroke-linecap="round"
          d="m 14.203187,15.95323 c 0.95685,4.0661 5.70812,5.82784 10.25602,4.1569 4.54791,-1.67093 3.40288,-6.68548 2.96034,-9.53209 C 26.746343,6.2477159 21.946022,2.984316 16.495517,3.42431 9.405043,3.9967 8.221122,5.95623 7.951711,11.43928 c -0.269412,5.48306 1.286194,6.34763 1.194974,10.77288 -0.09122,4.42525 -0.31003,3.94143 -0.908383,6.38025 l 8.298105,0.42576 c -0.0681,-2.36198 -0.35238,-4.47373 1.81223,-8.6353"/>
    <circle fill="currentColor" cx="12.263741" cy="11.579608" r="0.66145831"/>
    <circle fill="currentColor" cx="24.551529" cy="10.000171" r="0.66145831"/>
    <path stroke="currentColor" stroke-width="1.32292" stroke-linecap="round"
          d="m 9.807322,11.09059 c 1.160602,-0.74388 2.013755,-1.16292 1.870725,-2.48008"/>
    <path stroke="currentColor" stroke-width="1.32292" stroke-linecap="round"
          d="m 23.125837,6.93294 c 0.94902,1.0677 1.4714,1.61907 3.47252,1.22542"/>
</svg>
