<?xml version="1.0" encoding="UTF-8"?>
<svg
        width="280"
        height="128"
        viewBox="0 0 74.083334 33.866667"
        version="1.1"
        xml:space="preserve"
        xmlns="http://www.w3.org/2000/svg">
    <g transform="translate(-0.10656741,0.17904579)">
        <path
                fill="transparent"
                stroke="black"
                stroke-width="1.32292"
                stroke-linecap="round"
                d="m 35.828693,13.522292 c 0.95685,4.0661 5.70812,5.82784 10.25602,4.1569 4.54791,-1.67093 3.40288,-6.68548 2.96034,-9.5320898 -0.22127,-1.4233 -1.26548,-3.89242 -2.96904,-4.85898 -3.25447,-1.84651 -4.40976,-2.58094002 -7.95499,-2.29475002 -7.090474,0.57239002 -8.274395,2.53192002 -8.543806,8.01497002 -0.269412,5.4830598 1.286192,6.3476298 1.194974,10.7728798 -0.01149,0.557243 -0.02499,1.035255 -0.04091,1.450057 m 8.198606,-0.960878 c 0.276394,-0.742495 0.624535,-1.511542 1.044252,-2.318469"/>
        <circle fill="black" cx="33.889248" cy="9.1486702" r="0.66145831"/>
        <circle fill="black" cx="46.177032" cy="7.5692325" r="0.66145831"/>
        <path
                fill="black"
                d="m 9.3914926,33.230556 c -2.522309,-0.129418 -0.956481,-6.480241 -0.713779,-10.142718 0.248066,-3.743425 -6.048629,2.485291 -6.944558,-1.143487 -0.706531,-2.861659 16.8412424,-5.735835 16.4609314,-2.02311 -0.357569,3.490715 -6.444778,-1.039619 -6.831297,2.824946 -0.444556,4.444826 0.551011,10.613787 -1.9712974,10.484369 z"/>
        <path
                fill="black"
                d="m 15.864465,23.696293 c -4.972523,-0.07853 -5.3706,7.2345 -0.981271,7.285659 4.38933,0.05116 5.953795,-7.207126 0.981271,-7.285659 z m -0.150694,1.781604 c 2.543472,0.05083 0.851196,3.600964 -0.530229,3.536477 -1.381425,-0.06449 -2.013242,-3.587307 0.530229,-3.536477 z"/>
        <path
                fill="black"
                d="m 35.529422,21.147682 c -4.972524,-0.07853 -5.370601,7.2345 -0.981271,7.285659 4.389331,0.05116 5.953795,-7.207126 0.981271,-7.285659 z m -0.150693,1.781604 c 2.543471,0.05083 0.851195,3.600964 -0.53023,3.536477 -1.381425,-0.06449 -2.013242,-3.587307 0.53023,-3.536477 z"/>
        <path
                fill="black"
                d="m 20.937654,29.79735 c -1.854461,0.143399 -1.575151,-4.287284 -1.489386,-5.654727 0.08576,-1.367444 1.109007,-1.917598 3.465648,-1.9324 2.356641,-0.0148 2.413225,1.084021 1.50121,1.558888 -0.912015,0.474867 -3.130942,-0.414827 -3.043492,1.314355 0.08745,1.729182 1.420481,4.570485 -0.43398,4.713884 z"/>
        <path
                fill="black"
                d="m 68.559444,31.695832 c -1.854461,0.143399 -1.575151,-4.287284 -1.489386,-5.654727 0.08577,-1.367444 1.109007,-1.917598 3.465648,-1.9324 2.356641,-0.0148 2.413225,1.084021 1.50121,1.558888 -0.912015,0.474867 -3.130942,-0.414827 -3.043492,1.314355 0.08745,1.729182 1.420481,4.570485 -0.43398,4.713884 z"/>
        <path
                fill="black"
                d="m 26.610328,20.185122 c -1.325178,-0.107471 -3.448281,8.453152 1.293709,8.694003 4.74199,0.240851 3.829226,-1.862879 3.098735,-2.16279 -0.730492,-0.299912 -1.706876,0.498778 -2.666879,0.198228 -0.960004,-0.30055 -1.476754,-1.007141 -1.353806,-2.067356 0.122948,-1.060215 2.382598,0.438676 2.530371,-0.991044 0.147774,-1.429721 -2.56502,-0.397923 -2.166749,-1.522994 0.398271,-1.125071 0.589796,-2.040576 -0.735381,-2.148047 z"/>
        <path
                fill="black"
                d="m 53.910318,20.927849 c -1.325178,-0.107471 -3.448281,8.453152 1.293709,8.694004 4.74199,0.24085 3.829227,-1.86288 3.098735,-2.16279 -0.730491,-0.299913 -1.706876,0.498777 -2.666879,0.198228 -0.960004,-0.30055 -1.476754,-1.007141 -1.353806,-2.067356 0.122949,-1.060215 2.382598,0.438676 2.530372,-0.991045 0.147774,-1.429721 -2.56502,-0.397922 -2.16675,-1.522993 0.398271,-1.125072 0.589797,-2.040576 -0.735381,-2.148048 z"/>
        <path
                fill="black"
                d="m 42.571014,20.77139 c -2.727461,-0.172096 -3.623879,1.890245 -2.757443,2.431548 0.866436,0.541303 1.329816,-1.068018 2.642783,-0.933404 1.312968,0.134614 1.622277,0.615652 1.641575,1.307428 0.0193,0.691776 -1.453736,0.03982 -3.421425,0.606043 -1.967689,0.566228 -2.340672,4.000958 0.933616,4.320696 3.274288,0.319738 4.194468,-0.115085 4.245211,-2.79805 0.05074,-2.682966 -0.556855,-4.762166 -3.284317,-4.934261 z m -1.103347,4.75784 c 0.435769,-0.156623 2.342243,-0.459093 2.513674,-0.10222 0.171431,0.356873 0.07319,0.802968 -0.137632,1.102598 -0.210825,0.29963 -2.055347,0.124993 -2.499859,-0.129828 -0.444512,-0.254821 -0.311952,-0.713927 0.123817,-0.87055 z"/>
        <path
                fill="black"
                d="m 62.507815,30.883018 c 4.958569,0.01491 3.996952,-2.673759 2.984622,-2.669011 -1.012329,0.0047 -1.402911,0.832818 -2.47062,0.826636 -1.067709,-0.0062 -1.786742,-0.468566 -1.873559,-1.308555 -0.08682,-0.839989 0.945755,-0.226609 3.201159,-0.512598 2.255404,-0.285996 2.79862,-4.111139 -1.638264,-4.362513 -4.436884,-0.251374 -5.161908,8.011137 -0.203338,8.026041 z m 1.613403,-5.014033 c -0.73691,0.306407 -3.054445,0.306832 -3.023482,-0.348159 0.03096,-0.654991 1.045205,-1.34816 2.284041,-1.081207 1.238838,0.266953 1.47635,1.12296 0.739441,1.429366 z"/>
        <path
                fill="black"
                d="m 51.507895,22.999831 c 0.493621,-0.50207 0.09411,-1.832708 -2.800082,-1.578167 -2.89419,0.254542 -2.499829,4.034553 -0.397976,4.24934 2.101853,0.214787 2.328675,1.239902 1.073183,1.39199 -1.255492,0.15209 -1.907344,-1.246555 -2.877812,-0.493797 -0.970469,0.752756 -0.232078,2.559956 3.088241,2.430774 3.320319,-0.129182 2.946025,-4.519258 0.488996,-4.609249 -2.45703,-0.08999 -2.176116,-1.520454 -0.859347,-1.644115 1.31677,-0.123661 1.404865,1.148215 2.284797,0.253224 z"/>
    </g>
</svg>
