<?xml version="1.0" encoding="UTF-8"?>
<svg
        width="127.99999"
        height="96"
        viewBox="0 0 33.866665 25.4"
        version="1.1"
        xml:space="preserve"
        xmlns="http://www.w3.org/2000/svg">
    <g transform="translate(-88.173813,-135.8)">
        <path
                fill="#6cb045"
                stroke="#000000"
                stroke-width="1.32292"
                stroke-linecap="round"
                d="m 102.377,151.75323 c 0.95685,4.0661 5.70812,5.82784 10.25602,4.1569 4.54791,-1.67093 3.40288,-6.68548 2.96034,-9.53209 -0.22127,-1.4233 -1.26548,-3.89242 -2.96904,-4.85898 -3.25447,-1.84651 -4.40976,-2.58094 -7.95499,-2.29475 -7.090474,0.57239 -8.274395,2.53192 -8.543806,8.01497 -0.269412,5.48306 1.286194,6.34763 1.194974,10.77288 -0.09122,4.42525 -0.31003,3.94143 -0.908383,6.38025 l 8.298105,0.42576 c -0.0681,-2.36198 -0.35238,-4.47373 1.81223,-8.6353"/>
        <circle fill="#000000" cx="100.43755" cy="147.37961" r="0.66145831"/>
        <circle fill="#000000" cx="112.72534" cy="145.80017" r="0.66145831"/>
    </g>
</svg>
