<?xml version="1.0" encoding="UTF-8"?>
<svg
        width="256"
        height="48"
        viewBox="0 0 67.733334 12.7"
        version="1.1"
        xml:space="preserve"
        xmlns="http://www.w3.org/2000/svg">
    <g transform="translate(-88.173813,-135.8)">
        <path
                fill="#6cb045"
                stroke="#000000"
                stroke-width="1.32292"
                stroke-linejoin="round"
                d="m 95.470269,131.95909 c 0,0 -1.287449,3.13589 -6.372192,5.88118 h 2e-6 c 4.705432,0.60627 6.43743,-0.76072 6.43743,-0.76072"/>
        <path
                fill="#6cb045"
                stroke="#000000"
                stroke-width="1.32292"
                d="m 108.78989,132.766 c -0.35132,1.39421 1.41922,3.8663 -0.31633,5.0501 -2.05568,1.40215 -6.33868,1.03401 -7.76356,0.23271 -3.173585,-1.78471 0.16352,-10.39774 0.16352,-10.39774"/>
        <path
                fill="#6cb045"
                stroke="#000000"
                stroke-width="1.32292"
                d="m 116.73702,133.2182 c 0.35132,1.39421 -1.41922,3.8663 0.31633,5.0501 2.05568,1.40215 6.33867,1.03401 7.76355,0.23271 3.17358,-1.78471 -0.16352,-10.39774 -0.16352,-10.39774"/>
        <path
                fill="#76402e"
                stroke="#000000"
                stroke-width="1.32292"
                d="m 108.02418,132.0682 c 10.95478,0.006 14.43633,4.57888 -0.0254,4.7826 -14.461715,0.20372 -9.79766,-5.03606 0.0254,-4.7826 z"/>
        <path
                fill="#6cb045"
                stroke="#000000"
                stroke-width="1.32292"
                stroke-linecap="round"
                d="m 108.69702,135.83738 c 0.35132,1.39421 -1.41922,3.8663 0.31633,5.0501 2.05568,1.40215 6.33867,1.03401 7.76355,0.23271 3.17358,-1.78471 -0.16352,-10.39774 -0.16352,-10.39774"/>
        <path
                fill="#6cb045"
                stroke="#000000"
                stroke-width="1.32292"
                stroke-linecap="round"
                d="m 101.65019,135.94538 c -0.35132,1.39421 1.41922,3.8663 -0.31633,5.0501 -2.055678,1.40215 -6.338668,1.03401 -7.763548,0.23271 -3.17358,-1.78471 0.16352,-10.39774 0.16352,-10.39774"/>
        <path
                stroke="#000000"
                stroke-width="1.32292"
                stroke-linecap="round"
                d="m 118.6593,136.05132 c 2.699,-0.73396 2.13462,-7.70801 1.3446,-12.02493"/>
    </g>
</svg>
